<?xml version="1.0" encoding="UTF-8"?>
<svg xmlns="http://www.w3.org/2000/svg" xmlns:xlink="http://www.w3.org/1999/xlink" width="50px" height="50px" viewBox="0 0 50 50" version="1.1">
<defs>
<filter id="alpha" filterUnits="objectBoundingBox" x="0%" y="0%" width="100%" height="100%">
  <feColorMatrix type="matrix" in="SourceGraphic" values="0 0 0 0 1 0 0 0 0 1 0 0 0 0 1 0 0 0 1 0"/>
</filter>
<mask id="mask0">
  <g filter="url(#alpha)">
<rect x="0" y="0" width="50" height="50" style="fill:rgb(0%,0%,0%);fill-opacity:0.984314;stroke:none;"/>
  </g>
</mask>
<clipPath id="clip1">
  <rect x="0" y="0" width="50" height="50"/>
</clipPath>
<g id="surface5" clip-path="url(#clip1)">
<path style=" stroke:none;fill-rule:evenodd;fill:rgb(99.607843%,28.627451%,28.627451%);fill-opacity:1;" d="M 40.9375 42.636719 C 40.910156 42.617188 40.882812 42.601562 40.851562 42.585938 C 40.613281 42.15625 40.363281 41.730469 40.101562 41.3125 C 40.042969 41.21875 40.019531 41.117188 40.039062 41.011719 C 40.070312 40.984375 40.101562 40.953125 40.125 40.914062 C 40.242188 40.585938 40.242188 40.261719 40.125 39.9375 C 39.246094 38.460938 38.394531 36.972656 37.5625 35.476562 C 37.570312 35.441406 37.585938 35.410156 37.613281 35.386719 C 38.796875 34.699219 39.984375 34.015625 41.175781 33.335938 C 41.238281 33.296875 41.25 33.242188 41.210938 33.175781 C 40.953125 32.753906 40.707031 32.324219 40.476562 31.886719 C 40.382812 31.730469 40.285156 31.582031 40.175781 31.4375 C 38.953125 32.125 37.742188 32.820312 36.539062 33.523438 C 36.496094 33.539062 36.453125 33.542969 36.414062 33.539062 C 35.785156 32.429688 35.15625 31.320312 34.523438 30.210938 C 34.222656 29.734375 33.929688 29.25 33.648438 28.761719 C 33.613281 28.675781 33.574219 28.585938 33.539062 28.5 C 33.542969 28.476562 33.550781 28.457031 33.5625 28.4375 C 34.367188 27.976562 35.167969 27.507812 35.960938 27.023438 C 36.117188 26.964844 36.269531 26.894531 36.414062 26.8125 C 36.054688 26.175781 35.695312 25.542969 35.324219 24.914062 C 34.984375 25.140625 34.632812 25.34375 34.261719 25.523438 C 33.722656 25.851562 33.183594 26.171875 32.636719 26.488281 C 32.550781 26.535156 32.457031 26.542969 32.363281 26.511719 C 31.167969 24.429688 29.96875 22.34375 28.761719 20.261719 C 28.785156 20.203125 28.824219 20.167969 28.886719 20.164062 C 28.882812 20.132812 28.890625 20.109375 28.914062 20.085938 C 29.03125 19.996094 29.148438 19.902344 29.261719 19.8125 C 29.417969 19.644531 29.574219 19.476562 29.738281 19.3125 C 31.398438 17.3125 31.933594 15.027344 31.335938 12.460938 C 30.640625 10.179688 29.21875 8.542969 27.0625 7.550781 C 26.671875 7.394531 26.269531 7.261719 25.863281 7.148438 C 23.933594 6.734375 22.117188 7.007812 20.414062 7.960938 C 19.953125 8.253906 19.511719 8.582031 19.085938 8.9375 C 18.925781 9.105469 18.769531 9.277344 18.613281 9.449219 C 18.589844 9.460938 18.5625 9.464844 18.539062 9.460938 C 18.539062 9.5 18.53125 9.53125 18.511719 9.5625 C 17.085938 11.253906 16.5 13.203125 16.761719 15.414062 C 17.121094 17.617188 18.214844 19.351562 20.039062 20.613281 C 20.070312 20.667969 20.066406 20.726562 20.023438 20.789062 C 19.800781 21.160156 19.585938 21.535156 19.375 21.914062 C 19.332031 21.9375 19.285156 21.953125 19.238281 21.960938 C 17.261719 20.636719 15.972656 18.8125 15.375 16.488281 C 14.992188 14.710938 15.101562 12.96875 15.699219 11.261719 C 16.097656 10.242188 16.648438 9.316406 17.351562 8.488281 C 17.523438 8.324219 17.679688 8.148438 17.8125 7.960938 C 17.839844 7.964844 17.863281 7.960938 17.886719 7.949219 C 18.0625 7.765625 18.246094 7.589844 18.4375 7.425781 C 20.582031 5.753906 23.015625 5.128906 25.738281 5.550781 C 28.746094 6.167969 30.933594 7.847656 32.300781 10.585938 C 32.410156 10.8125 32.496094 11.046875 32.5625 11.289062 C 32.582031 11.3125 32.605469 11.335938 32.625 11.363281 C 32.660156 11.515625 32.699219 11.671875 32.738281 11.824219 C 32.765625 11.890625 32.792969 11.953125 32.824219 12.011719 C 32.882812 12.328125 32.949219 12.636719 33.023438 12.9375 C 33.140625 13.921875 33.140625 14.902344 33.023438 15.886719 C 32.945312 16.191406 32.878906 16.5 32.824219 16.8125 C 32.785156 16.867188 32.757812 16.921875 32.738281 16.988281 C 32.710938 17.128906 32.675781 17.265625 32.636719 17.398438 C 32.332031 18.179688 31.953125 18.917969 31.5 19.613281 C 31.332031 19.839844 31.152344 20.058594 30.960938 20.261719 C 30.941406 20.28125 30.933594 20.308594 30.9375 20.335938 C 30.914062 20.335938 30.886719 20.335938 30.863281 20.335938 C 31.324219 21.1875 31.808594 22.027344 32.3125 22.863281 C 32.316406 22.953125 32.359375 23.019531 32.4375 23.0625 C 32.488281 23.179688 32.550781 23.289062 32.625 23.386719 C 32.769531 23.644531 32.90625 23.902344 33.039062 24.164062 C 33.085938 24.164062 33.128906 24.15625 33.175781 24.136719 C 34.078125 23.621094 34.972656 23.09375 35.863281 22.5625 C 35.910156 22.535156 35.960938 22.53125 36.011719 22.550781 C 36.792969 23.910156 37.570312 25.265625 38.335938 26.625 C 38.511719 26.867188 38.664062 27.125 38.789062 27.398438 C 38.777344 27.421875 38.769531 27.441406 38.761719 27.460938 C 38.488281 27.640625 38.207031 27.796875 37.914062 27.9375 C 37.878906 28.011719 37.820312 28.046875 37.738281 28.050781 C 37.648438 28.097656 37.5625 28.15625 37.488281 28.226562 C 36.945312 28.503906 36.421875 28.808594 35.914062 29.136719 C 36.296875 29.804688 36.683594 30.472656 37.074219 31.136719 C 37.09375 31.160156 37.113281 31.164062 37.136719 31.148438 C 38.296875 30.460938 39.464844 29.789062 40.636719 29.125 C 40.695312 29.039062 40.769531 29.019531 40.863281 29.0625 C 41.59375 30.308594 42.320312 31.558594 43.050781 32.8125 C 43.226562 33.15625 43.417969 33.488281 43.625 33.8125 C 43.636719 33.871094 43.640625 33.929688 43.636719 33.988281 C 43.5625 34.003906 43.492188 34.027344 43.425781 34.0625 C 42.976562 34.335938 42.519531 34.597656 42.0625 34.851562 C 41.429688 35.238281 40.789062 35.609375 40.136719 35.960938 C 40.089844 36.035156 40.023438 36.070312 39.9375 36.0625 C 40.207031 36.585938 40.503906 37.09375 40.824219 37.585938 C 40.859375 37.675781 40.898438 37.765625 40.9375 37.851562 C 41.269531 38.359375 41.566406 38.890625 41.824219 39.4375 C 41.84375 39.582031 41.875 39.726562 41.925781 39.863281 C 41.925781 40.046875 41.949219 40.226562 41.988281 40.398438 C 41.945312 40.582031 41.925781 40.769531 41.925781 40.960938 C 41.789062 41.640625 41.460938 42.199219 40.9375 42.636719 Z M 26.335938 17.335938 C 25.679688 16.195312 25.011719 15.054688 24.335938 13.914062 C 24.277344 13.832031 24.242188 13.738281 24.238281 13.636719 C 24.171875 13.628906 24.109375 13.640625 24.050781 13.664062 C 23.453125 14.71875 22.851562 15.765625 22.238281 16.800781 C 22.203125 16.921875 22.140625 17.027344 22.050781 17.113281 C 22.023438 17.191406 21.996094 17.265625 21.960938 17.335938 C 21.84375 17.238281 21.726562 17.132812 21.613281 17.023438 C 21.589844 17.011719 21.5625 17.007812 21.539062 17.011719 C 21.503906 16.894531 21.433594 16.804688 21.324219 16.738281 C 21.285156 16.683594 21.253906 16.625 21.226562 16.5625 C 21.199219 16.542969 21.171875 16.535156 21.136719 16.539062 C 21.140625 16.503906 21.136719 16.46875 21.125 16.4375 C 21.0625 16.351562 21 16.261719 20.9375 16.175781 C 20.78125 15.847656 20.648438 15.507812 20.550781 15.164062 C 20.46875 14.59375 20.484375 14.027344 20.601562 13.460938 C 20.648438 13.3125 20.699219 13.164062 20.75 13.011719 C 20.835938 12.878906 20.90625 12.738281 20.960938 12.585938 C 21.054688 12.496094 21.113281 12.386719 21.136719 12.261719 C 21.164062 12.265625 21.1875 12.261719 21.210938 12.25 C 21.25 12.1875 21.289062 12.125 21.324219 12.0625 C 21.53125 11.859375 21.742188 11.660156 21.960938 11.476562 C 22.726562 10.925781 23.585938 10.6875 24.539062 10.761719 C 26.242188 11.0625 27.308594 12.050781 27.738281 13.726562 C 27.90625 14.847656 27.644531 15.851562 26.949219 16.738281 C 26.757812 16.953125 26.554688 17.152344 26.335938 17.335938 Z M 26.335938 17.335938 "/>
</g>
<mask id="mask1">
  <g filter="url(#alpha)">
<rect x="0" y="0" width="50" height="50" style="fill:rgb(0%,0%,0%);fill-opacity:0.984314;stroke:none;"/>
  </g>
</mask>
<clipPath id="clip2">
  <rect x="0" y="0" width="50" height="50"/>
</clipPath>
<g id="surface8" clip-path="url(#clip2)">
<path style=" stroke:none;fill-rule:evenodd;fill:rgb(99.607843%,28.627451%,28.627451%);fill-opacity:1;" d="M 27.113281 18.664062 C 27.082031 18.648438 27.054688 18.632812 27.023438 18.613281 C 26.800781 18.230469 26.574219 17.847656 26.351562 17.460938 C 26.335938 17.421875 26.332031 17.378906 26.335938 17.335938 C 26.554688 17.152344 26.757812 16.953125 26.949219 16.738281 C 27.644531 15.851562 27.90625 14.847656 27.738281 13.726562 C 27.308594 12.050781 26.242188 11.0625 24.539062 10.761719 C 23.585938 10.6875 22.726562 10.925781 21.960938 11.476562 C 21.742188 11.660156 21.53125 11.859375 21.324219 12.0625 C 21.289062 12.125 21.25 12.1875 21.210938 12.25 C 21.1875 12.261719 21.164062 12.265625 21.136719 12.261719 C 21.113281 12.386719 21.054688 12.496094 20.960938 12.585938 C 20.90625 12.738281 20.835938 12.878906 20.75 13.011719 C 20.699219 13.164062 20.648438 13.3125 20.601562 13.460938 C 20.484375 14.027344 20.46875 14.59375 20.550781 15.164062 C 20.648438 15.507812 20.78125 15.847656 20.9375 16.175781 C 21 16.261719 21.0625 16.351562 21.125 16.4375 C 21.136719 16.46875 21.140625 16.503906 21.136719 16.539062 C 21.171875 16.535156 21.199219 16.542969 21.226562 16.5625 C 21.253906 16.625 21.285156 16.683594 21.324219 16.738281 C 21.433594 16.804688 21.503906 16.894531 21.539062 17.011719 C 21.5625 17.007812 21.589844 17.011719 21.613281 17.023438 C 21.726562 17.132812 21.84375 17.238281 21.960938 17.335938 C 21.761719 17.734375 21.550781 18.125 21.324219 18.511719 C 21.285156 18.582031 21.234375 18.632812 21.164062 18.664062 C 19.734375 17.609375 19 16.1875 18.960938 14.398438 C 18.992188 14.058594 19.019531 13.710938 19.050781 13.363281 C 19.402344 11.800781 20.273438 10.625 21.664062 9.835938 C 21.800781 9.78125 21.933594 9.714844 22.0625 9.636719 C 22.234375 9.589844 22.402344 9.527344 22.5625 9.449219 C 22.863281 9.386719 23.164062 9.320312 23.460938 9.25 C 25.542969 9.070312 27.195312 9.804688 28.425781 11.460938 C 28.824219 12.085938 29.097656 12.761719 29.25 13.488281 C 29.53125 15.363281 28.992188 16.953125 27.636719 18.25 C 27.464844 18.394531 27.289062 18.53125 27.113281 18.664062 Z M 26.335938 17.335938 C 25.679688 16.195312 25.011719 15.054688 24.335938 13.914062 C 24.277344 13.832031 24.242188 13.738281 24.238281 13.636719 C 24.171875 13.628906 24.109375 13.640625 24.050781 13.664062 C 23.453125 14.71875 22.851562 15.765625 22.238281 16.800781 C 22.203125 16.921875 22.140625 17.027344 22.050781 17.113281 C 22.023438 17.191406 21.996094 17.265625 21.960938 17.335938 C 21.84375 17.238281 21.726562 17.132812 21.613281 17.023438 C 21.589844 17.011719 21.5625 17.007812 21.539062 17.011719 C 21.503906 16.894531 21.433594 16.804688 21.324219 16.738281 C 21.285156 16.683594 21.253906 16.625 21.226562 16.5625 C 21.199219 16.542969 21.171875 16.535156 21.136719 16.539062 C 21.140625 16.503906 21.136719 16.46875 21.125 16.4375 C 21.0625 16.351562 21 16.261719 20.9375 16.175781 C 20.78125 15.847656 20.648438 15.507812 20.550781 15.164062 C 20.46875 14.59375 20.484375 14.027344 20.601562 13.460938 C 20.648438 13.3125 20.699219 13.164062 20.75 13.011719 C 20.835938 12.878906 20.90625 12.738281 20.960938 12.585938 C 21.054688 12.496094 21.113281 12.386719 21.136719 12.261719 C 21.164062 12.265625 21.1875 12.261719 21.210938 12.25 C 21.25 12.1875 21.289062 12.125 21.324219 12.0625 C 21.53125 11.859375 21.742188 11.660156 21.960938 11.476562 C 22.726562 10.925781 23.585938 10.6875 24.539062 10.761719 C 26.242188 11.0625 27.308594 12.050781 27.738281 13.726562 C 27.90625 14.847656 27.644531 15.851562 26.949219 16.738281 C 26.757812 16.953125 26.554688 17.152344 26.335938 17.335938 Z M 26.335938 17.335938 "/>
</g>
<mask id="mask2">
  <g filter="url(#alpha)">
<rect x="0" y="0" width="50" height="50" style="fill:rgb(0%,0%,0%);fill-opacity:0.996078;stroke:none;"/>
  </g>
</mask>
<clipPath id="clip3">
  <rect x="0" y="0" width="50" height="50"/>
</clipPath>
<g id="surface11" clip-path="url(#clip3)">
<path style=" stroke:none;fill-rule:evenodd;fill:rgb(0.392157%,56.862745%,99.607843%);fill-opacity:1;" d="M 26.335938 17.335938 C 26.332031 17.378906 26.335938 17.421875 26.351562 17.460938 C 26.574219 17.847656 26.800781 18.230469 27.023438 18.613281 C 27.054688 18.632812 27.082031 18.648438 27.113281 18.664062 C 28 20.238281 28.90625 21.804688 29.824219 23.363281 C 31.742188 26.722656 33.679688 30.074219 35.636719 33.414062 C 36.035156 34.15625 36.453125 34.878906 36.898438 35.585938 C 37.761719 37.109375 38.621094 38.625 39.488281 40.136719 C 39.671875 40.429688 39.855469 40.722656 40.039062 41.011719 C 40.019531 41.117188 40.042969 41.21875 40.101562 41.3125 C 40.363281 41.730469 40.613281 42.15625 40.851562 42.585938 C 40.882812 42.601562 40.910156 42.617188 40.9375 42.636719 C 41.285156 43.21875 41.632812 43.800781 41.976562 44.386719 C 41.992188 44.429688 41.988281 44.464844 41.960938 44.5 C 38.960938 44.519531 35.960938 44.515625 32.960938 44.488281 C 30.613281 40.429688 28.265625 36.363281 25.925781 32.289062 C 25.332031 31.269531 24.734375 30.253906 24.136719 29.238281 C 23.089844 31.015625 22.0625 32.800781 21.050781 34.585938 C 19.984375 36.386719 18.9375 38.195312 17.914062 40.011719 C 17.640625 40.492188 17.359375 40.960938 17.0625 41.425781 C 16.496094 42.457031 15.910156 43.476562 15.3125 44.488281 C 12.320312 44.511719 9.328125 44.519531 6.335938 44.511719 C 6.332031 44.425781 6.34375 44.34375 6.375 44.261719 C 8.25 41.039062 10.113281 37.816406 11.960938 34.585938 C 13.332031 32.230469 14.691406 29.878906 16.039062 27.523438 C 17.058594 25.792969 18.0625 24.054688 19.050781 22.3125 C 19.148438 22.214844 19.210938 22.101562 19.238281 21.960938 C 19.285156 21.953125 19.332031 21.9375 19.375 21.914062 C 19.585938 21.535156 19.800781 21.160156 20.023438 20.789062 C 20.066406 20.726562 20.070312 20.667969 20.039062 20.613281 C 20.425781 19.972656 20.800781 19.320312 21.164062 18.664062 C 21.234375 18.632812 21.285156 18.582031 21.324219 18.511719 C 21.550781 18.125 21.761719 17.734375 21.960938 17.335938 C 21.996094 17.265625 22.023438 17.191406 22.050781 17.113281 C 22.140625 17.027344 22.203125 16.921875 22.238281 16.800781 C 22.851562 15.765625 23.453125 14.71875 24.050781 13.664062 C 24.109375 13.640625 24.171875 13.628906 24.238281 13.636719 C 24.242188 13.738281 24.277344 13.832031 24.335938 13.914062 C 25.011719 15.054688 25.679688 16.195312 26.335938 17.335938 Z M 26.335938 17.335938 "/>
</g>
</defs>
<g id="surface1">
<use xlink:href="#surface5" mask="url(#mask0)"/>
<use xlink:href="#surface8" mask="url(#mask1)"/>
<use xlink:href="#surface11" mask="url(#mask2)"/>
</g>
</svg>
